<?xml version="1.0" encoding="utf-8"?>
<!-- Generator: Adobe Illustrator 16.0.0, SVG Export Plug-In . SVG Version: 6.00 Build 0)  -->
<!DOCTYPE svg PUBLIC "-//W3C//DTD SVG 1.1//EN" "http://www.w3.org/Graphics/SVG/1.1/DTD/svg11.dtd">
<svg version="1.1" id="Capa_1" xmlns="http://www.w3.org/2000/svg" xmlns:xlink="http://www.w3.org/1999/xlink" x="0px" y="0px"
	 width="40px" height="40px" viewBox="0 0 40 40" enable-background="new 0 0 40 40" xml:space="preserve">
<g>
	<g>
		<path fill="#1225C9" stroke="#1225C9" stroke-width="0.5" stroke-miterlimit="10" d="M19.97,4.863
			c-4.825,0-8.751,3.926-8.751,8.751c0,2.988,1.507,5.632,3.8,7.211c-2.141,0.739-4.104,1.959-5.752,3.606
			c-2.859,2.86-4.434,6.661-4.434,10.705h2.365c0-7.043,5.729-12.771,12.772-12.771c4.826,0,8.75-3.926,8.75-8.751
			C28.723,8.789,24.796,4.863,19.97,4.863z M19.97,20c-3.521,0-6.386-2.865-6.386-6.386c0-3.521,2.865-6.387,6.386-6.387
			c3.522,0,6.385,2.865,6.385,6.387C26.355,17.135,23.492,20,19.97,20z"/>
	</g>
</g>
<g>
	<g>
		<polygon fill="#1225C9" stroke="#1225C9" stroke-width="0.5" stroke-miterlimit="10" points="30.2,27.807 30.2,22.838 
			27.835,22.838 27.835,27.807 22.867,27.807 22.867,30.17 27.835,30.17 27.835,35.139 30.2,35.139 30.2,30.17 35.167,30.17 
			35.167,27.807 		"/>
	</g>
</g>
</svg>
