<?xml version="1.0" encoding="utf-8"?>
<!-- Generator: Adobe Illustrator 16.0.0, SVG Export Plug-In . SVG Version: 6.00 Build 0)  -->
<!DOCTYPE svg PUBLIC "-//W3C//DTD SVG 1.1//EN" "http://www.w3.org/Graphics/SVG/1.1/DTD/svg11.dtd">
<svg version="1.1" id="Capa_1" xmlns="http://www.w3.org/2000/svg" xmlns:xlink="http://www.w3.org/1999/xlink" x="0px" y="0px"
	 width="40px" height="40px" viewBox="0 0 40 40" enable-background="new 0 0 40 40" xml:space="preserve">
<g>
	<g>
		<polygon fill="#6A6B75" points="23.149,28.807 23.149,22.689 26.208,25.748 		"/>
	</g>
</g>
<g>
	<polygon fill="#6A6B75" points="7.156,22.457 5.156,22.457 5.156,5.25 24.51,5.25 24.51,12.479 22.51,12.479 22.51,7.25 
		7.156,7.25 	"/>
</g>
<g>
	<polygon fill="#6A6B75" points="34.844,35.229 16.49,35.229 16.49,29.666 18.49,29.666 18.49,33.229 32.844,33.229 32.844,17.875 
		18.49,17.875 18.49,21.457 16.49,21.457 16.49,15.875 34.844,15.875 	"/>
</g>
<g>
	<polygon fill="#6A6B75" points="23.313,26.748 10.625,26.748 10.625,15.875 12.625,15.875 12.625,24.748 23.313,24.748 	"/>
</g>
</svg>
