<?xml version="1.0" encoding="utf-8"?>
<!-- Generator: Adobe Illustrator 16.0.0, SVG Export Plug-In . SVG Version: 6.00 Build 0)  -->
<!DOCTYPE svg PUBLIC "-//W3C//DTD SVG 1.1//EN" "http://www.w3.org/Graphics/SVG/1.1/DTD/svg11.dtd">
<svg version="1.1" id="Capa_1" xmlns="http://www.w3.org/2000/svg" xmlns:xlink="http://www.w3.org/1999/xlink" x="0px" y="0px"
	 width="40px" height="40px" viewBox="0 0 40 40" enable-background="new 0 0 40 40" xml:space="preserve">
<g>
	<g>
		<polygon fill="#1225C9" points="22.774,29.182 22.774,23.064 25.833,26.123 		"/>
	</g>
</g>
<g>
	<polygon fill="#1225C9" points="6.781,22.832 4.781,22.832 4.781,5.625 24.135,5.625 24.135,12.854 22.135,12.854 22.135,7.625 
		6.781,7.625 	"/>
</g>
<g>
	<polygon fill="#1225C9" points="34.469,35.604 16.115,35.604 16.115,30.041 18.115,30.041 18.115,33.604 32.469,33.604 
		32.469,18.25 18.115,18.25 18.115,21.832 16.115,21.832 16.115,16.25 34.469,16.25 	"/>
</g>
<g>
	<polygon fill="#1225C9" points="22.938,27.123 10.25,27.123 10.25,16.25 12.25,16.25 12.25,25.123 22.938,25.123 	"/>
</g>
</svg>
