<?xml version="1.0" encoding="utf-8"?>
<!-- Generator: Adobe Illustrator 24.1.1, SVG Export Plug-In . SVG Version: 6.00 Build 0)  -->
<svg version="1.1" id="Capa_1" xmlns="http://www.w3.org/2000/svg" xmlns:xlink="http://www.w3.org/1999/xlink" x="0px" y="0px"
	 viewBox="0 0 200 200" style="enable-background:new 0 0 200 200;" xml:space="preserve">
<style type="text/css">
	.st0{fill:#1225C9;}
</style>
<g>
	<g>
		<path class="st0" d="M127.4,34.6V26h-55v8.6H42v138.2h115.8V34.6H127.4z M80.9,34.6h37.8v17.2H80.9V34.6z M149.2,164.2H50.6v-121
			h21.8v17.2h55V43.2h21.8V164.2z"/>
	</g>
</g>
<g>
	<g>
		<rect x="77.3" y="74.3" class="st0" width="62.3" height="8.6"/>
	</g>
</g>
<g>
	<g>
		<rect x="60.1" y="74.3" class="st0" width="8.6" height="8.6"/>
	</g>
</g>
<g>
	<g>
		<rect x="77.3" y="96.7" class="st0" width="62.3" height="8.6"/>
	</g>
</g>
<g>
	<g>
		<rect x="60.1" y="96.7" class="st0" width="8.6" height="8.6"/>
	</g>
</g>
<g>
	<g>
		<rect x="77.3" y="119.2" class="st0" width="62.3" height="8.6"/>
	</g>
</g>
<g>
	<g>
		<rect x="60.1" y="119.2" class="st0" width="8.6" height="8.6"/>
	</g>
</g>
<g>
	<g>
		<rect x="77.3" y="141.7" class="st0" width="62.3" height="8.6"/>
	</g>
</g>
<g>
	<g>
		<rect x="60.1" y="141.7" class="st0" width="8.6" height="8.6"/>
	</g>
</g>
</svg>
