<?xml version="1.0" encoding="utf-8"?>
<!-- Generator: Adobe Illustrator 24.0.2, SVG Export Plug-In . SVG Version: 6.00 Build 0)  -->
<svg version="1.1" id="Layer_1" xmlns="http://www.w3.org/2000/svg" xmlns:xlink="http://www.w3.org/1999/xlink" x="0px" y="0px"
	 viewBox="0 0 100 100" style="enable-background:new 0 0 100 100;" xml:space="preserve">
<style type="text/css">
	.st0{fill:#1D2BAA;}
</style>
<g>
	<g>
		<path class="st0" d="M76.6,58.9c-4.1-4.1-9-7.1-14.3-9C68,46,71.8,39.4,71.8,32c0-12-9.8-21.8-21.8-21.8S28.2,20,28.2,32
			c0,7.4,3.7,14,9.5,17.9c-5.3,1.8-10.2,4.9-14.3,9c-7.1,7.1-11,16.6-11,26.6h5.9C18.2,68,32.5,53.7,50,53.7S81.8,68,81.8,85.5h5.9
			C87.7,75.5,83.7,66,76.6,58.9z M50,47.9c-8.8,0-15.9-7.1-15.9-15.9S41.2,16.1,50,16.1S65.9,23.2,65.9,32S58.8,47.9,50,47.9z"/>
	</g>
</g>
</svg>
