<?xml version="1.0" encoding="utf-8"?>
<!-- Generator: Adobe Illustrator 16.0.0, SVG Export Plug-In . SVG Version: 6.00 Build 0)  -->
<!DOCTYPE svg PUBLIC "-//W3C//DTD SVG 1.1//EN" "http://www.w3.org/Graphics/SVG/1.1/DTD/svg11.dtd">
<svg version="1.1" id="Layer_1" xmlns="http://www.w3.org/2000/svg" xmlns:xlink="http://www.w3.org/1999/xlink" x="0px" y="0px"
	 width="114px" height="83px" viewBox="0 0 114 83" enable-background="new 0 0 114 83" xml:space="preserve">
<path fill="#9E9E9F" d="M12.751,62.323c0,1.622,1.078,2.936,2.408,2.936h2.328h0.43c0.229,0,0.414,0.224,0.414,0.501
	c0,0.28-0.185,0.507-0.414,0.507h-5.166v2.432h5.166c1.33,0,2.409-1.316,2.409-2.938c0-1.62-1.079-2.932-2.409-2.932h-2.328h-0.43
	c-0.231,0-0.413-0.228-0.413-0.505c0-0.276,0.182-0.502,0.413-0.502h5.167v-2.434H15.16C13.829,59.386,12.751,60.7,12.751,62.323"/>
<path fill="#9E9E9F" d="M96.072,61.82h5.166v-2.435h-5.166c-1.332,0-2.409,1.316-2.409,2.938c0,1.621,1.077,2.937,2.409,2.937h2.329
	h0.43c0.23,0,0.413,0.223,0.413,0.5c0,0.28-0.182,0.507-0.413,0.507h-5.167v2.432h5.167c1.331,0,2.407-1.317,2.407-2.938
	c0-1.62-1.076-2.932-2.407-2.932h-2.33h-0.429c-0.23,0-0.417-0.227-0.417-0.504C95.656,62.047,95.842,61.82,96.072,61.82"/>
<path fill="#9E9E9F" d="M32.978,59.24c-0.521,0-1.004,0.204-1.399,0.549c-0.398-0.352-0.887-0.564-1.417-0.564
	c-1.328,0-2.405,1.315-2.405,2.937v6.511h1.993v-6.511c0-0.278,0.184-0.505,0.412-0.505c0.222,0,0.399,0.216,0.41,0.481
	c0,0.012-0.002,0.026-0.002,0.038h0.006v6.532h1.995v-6.546c0-0.004-0.002-0.009-0.002-0.013c0.014-0.265,0.188-0.474,0.409-0.474
	c0.227,0,0.413,0.224,0.413,0.502v6.532h1.994v-6.532C35.384,60.554,34.306,59.24,32.978,59.24"/>
<path fill="#9E9E9F" d="M59.309,59.24c-0.522,0-1.002,0.206-1.399,0.549c-0.397-0.352-0.886-0.564-1.415-0.564
	c-1.33,0-2.408,1.315-2.408,2.937v6.511h1.996v-6.511c0-0.278,0.184-0.505,0.412-0.505c0.221,0,0.401,0.216,0.41,0.481
	c-0.003,0.012-0.003,0.026-0.003,0.038h0.004v6.532h1.997v-6.546v-0.013c0.012-0.265,0.187-0.474,0.407-0.474
	c0.228,0,0.413,0.224,0.413,0.502v6.532h1.993v-6.532C61.714,60.554,60.638,59.24,59.309,59.24"/>
<path fill="#9E9E9F" d="M41.102,59.433h-5.104v2.432h5.104c0.23,0,0.416,0.222,0.416,0.502c0,0.271-0.178,0.485-0.394,0.5
	c-0.014,0-0.023-0.002-0.033-0.002v0.007h-5.125v2.429h5.136h0.012c0.216,0.018,0.391,0.231,0.391,0.501
	c0,0.275-0.186,0.502-0.414,0.502h-5.125v2.433h5.125c1.328,0,2.407-1.314,2.407-2.935c0-0.639-0.169-1.226-0.451-1.707
	c0.29-0.486,0.464-1.081,0.464-1.728C43.511,60.747,42.433,59.433,41.102,59.433"/>
<path fill="#9E9E9F" d="M25.813,60.535c-0.381-0.785-1.104-1.31-1.93-1.31h-0.051c-0.826,0-1.549,0.525-1.931,1.31
	c0,0-0.362,0.575-0.646,2.517l-0.845,5.657h2.256l0.783-6.634c0.036-0.215,0.195-0.378,0.383-0.378h0.051
	c0.189,0,0.345,0.163,0.381,0.378l0.783,6.634h2.259l-0.847-5.657C26.177,61.11,25.813,60.535,25.813,60.535"/>
<path fill="#9E9E9F" d="M47.959,59.269c-2.178,0-3.944,2.155-3.944,4.809c0,2.652,1.766,4.809,3.944,4.809
	c2.178,0,3.944-2.156,3.944-4.809C51.903,61.424,50.137,59.269,47.959,59.269 M47.959,66.627c-1.152,0-2.09-1.139-2.09-2.549
	c0-1.406,0.938-2.548,2.09-2.548s2.092,1.142,2.092,2.548C50.051,65.488,49.111,66.627,47.959,66.627"/>
<path fill="#9E9E9F" d="M66.235,59.269c-2.178,0-3.942,2.155-3.942,4.809c0,2.652,1.764,4.809,3.942,4.809
	c2.176,0,3.94-2.156,3.94-4.809C70.176,61.424,68.411,59.269,66.235,59.269 M66.235,66.627c-1.156,0-2.09-1.139-2.09-2.549
	c0-1.406,0.935-2.548,2.09-2.548s2.09,1.142,2.09,2.548C68.326,65.488,67.391,66.627,66.235,66.627"/>
<path fill="#9E9E9F" d="M81.099,59.269c-2.177,0-3.941,2.155-3.941,4.809c0,2.652,1.764,4.809,3.941,4.809
	c2.178,0,3.945-2.156,3.945-4.809C85.044,61.424,83.277,59.269,81.099,59.269 M81.099,66.627c-1.152,0-2.089-1.139-2.089-2.549
	c0-1.406,0.937-2.548,2.089-2.548c1.156,0,2.09,1.142,2.09,2.548C83.189,65.488,82.255,66.627,81.099,66.627"/>
<polygon fill="#9E9E9F" points="70.375,61.877 72.563,61.877 72.563,68.709 74.754,68.709 74.754,61.877 76.978,61.877 
	76.978,59.367 70.375,59.367 "/>
<path fill="#9E9E9F" d="M91.76,64.505c0.054-0.158,0.136-0.353,0.261-0.622c0.25-0.483,0.398-1.079,0.398-1.726
	c0-1.623-0.922-2.939-2.064-2.939h-1.012v-0.005H85.55l0.035,9.454h1.874V65.09h2.806c0.193,0,0.275,0.186,0.275,0.322v3.256h1.709
	v-3.256C92.249,65.066,92.052,64.752,91.76,64.505 M87.434,61.653h2.92c0.196,0,0.356,0.227,0.356,0.505
	c0,0.269-0.152,0.485-0.341,0.5c-0.008,0-0.018-0.004-0.026-0.004v0.008h-2.905L87.434,61.653z"/>
<rect x="49.357" y="11.391" fill="#0062B1" width="15.411" height="41.824"/>
<polygon fill="#0062B1" points="28.672,53.214 12.546,53.214 33.249,11.391 49.378,11.391 "/>
<polygon fill="#0062B1" points="85.423,53.214 101.553,53.214 80.847,11.391 64.716,11.391 "/>
<rect x="12.707" y="56.251" fill="#9E9E9F" width="88.854" height="0.937"/>
<rect x="12.707" y="70.476" fill="#9E9E9F" width="88.854" height="0.937"/>
</svg>
