<?xml version="1.0" encoding="utf-8"?>
<!-- Generator: Adobe Illustrator 24.0.2, SVG Export Plug-In . SVG Version: 6.00 Build 0)  -->
<svg version="1.1" id="Capa_1" xmlns="http://www.w3.org/2000/svg" xmlns:xlink="http://www.w3.org/1999/xlink" x="0px" y="0px"
	 viewBox="0 0 200 200" style="enable-background:new 0 0 200 200;" xml:space="preserve">
<style type="text/css">
	.st0{fill:#006CB8;}
</style>
<polygon class="st0" points="151,140.5 151,169.5 45.3,169.5 45.3,57 62,57 62.1,48.5 36.8,48.5 36.8,178 159.5,178 159.5,131.8 "/>
<path class="st0" d="M56.3,22.1v137.6h83.1l28.2-28.2V22.1H56.3z M64.4,30.1h95.1v94H132v27.5H64.4V30.1z M155.5,132.2l-15.4,15.4
	v-15.4H155.5z"/>
<path class="st0" d="M79,106.9h8.5v8.1H79V106.9z"/>
<path class="st0" d="M95.5,106.9h49.4v8.1H95.5V106.9z"/>
<path class="st0" d="M79,124.1h8.5v8.1H79V124.1z"/>
<path class="st0" d="M95.5,124.1H112v8.1H95.5V124.1z"/>
<path class="st0" d="M92.9,85l4.7-2.7c2.7,3,6.3,5.1,10.4,6v5.4h8.1v-5.4c4.1-0.9,7.7-3,10.4-6L131,85l4-7l-4.7-2.7
	c0.6-1.9,1-3.9,1-6s-0.3-4.1-1-6l4.7-2.7l-4-7l-4.7,2.7c-2.7-3-6.3-5.1-10.4-6V45h-8.1v5.4c-4.1,0.9-7.7,3-10.4,6l-4.7-2.7l-4,7
	l4.7,2.7c-0.6,1.9-1,3.9-1,6s0.3,4.1,1,6l-4.7,2.7L92.9,85z M100.6,69.4c0-6.3,5.1-11.4,11.4-11.4s11.4,5.1,11.4,11.4
	s-5.1,11.4-11.4,11.4S100.6,75.6,100.6,69.4z"/>
</svg>
