<?xml version="1.0" encoding="utf-8"?>
<!-- Generator: Adobe Illustrator 24.0.2, SVG Export Plug-In . SVG Version: 6.00 Build 0)  -->
<svg version="1.1" id="Layer_1" xmlns="http://www.w3.org/2000/svg" xmlns:xlink="http://www.w3.org/1999/xlink" x="0px" y="0px"
	 viewBox="0 0 100 100" style="enable-background:new 0 0 100 100;" xml:space="preserve">
<style type="text/css">
	.st0{fill:#1D2BAA;}
</style>
<g>
	<path class="st0" d="M50,71.5c1.5,0,2.7-1.2,2.7-2.7V57.4c0-1.5-1.2-2.7-2.7-2.7c-1.5,0-2.7,1.2-2.7,2.7v11.4
		C47.3,70.3,48.5,71.5,50,71.5z"/>
	<path class="st0" d="M81.4,37.2h-13V25.8c0-9.2-8.3-16.7-18.4-16.7c-10.2,0-18.4,7.5-18.4,16.7v11.4h-13c-1.5,0-2.7,1.2-2.7,2.7
		v25.3c0,14.2,11.5,25.7,25.7,25.7h16.9c14.2,0,25.7-11.5,25.7-25.7V39.9C84.2,38.4,82.9,37.2,81.4,37.2z M37,25.8
		c0-6.2,5.8-11.2,13-11.2s13,5,13,11.2v11.4H37V25.8z M78.7,65.3c0,11.1-9.1,20.2-20.2,20.2H41.5c-11.1,0-20.2-9.1-20.2-20.2V42.7
		h57.3V65.3z"/>
</g>
</svg>
