<?xml version="1.0" encoding="utf-8"?>
<!-- Generator: Adobe Illustrator 24.1.1, SVG Export Plug-In . SVG Version: 6.00 Build 0)  -->
<svg version="1.1" id="Layer_1" xmlns="http://www.w3.org/2000/svg" xmlns:xlink="http://www.w3.org/1999/xlink" x="0px" y="0px"
	 viewBox="0 0 40 40" style="enable-background:new 0 0 40 40;" xml:space="preserve">
<style type="text/css">
	.st0{fill:#1225C9;stroke:#1225C9;stroke-width:1.6027;stroke-miterlimit:10;}
</style>
<g>
	<g>
		<path class="st0" d="M35.3,33.5l-8.7-8.7c1.6-2,2.7-4.6,2.7-7.4C29.4,11,24,5.7,17.6,5.7S5.9,11.1,5.9,17.5s5.2,11.8,11.8,11.8
			c2.8,0,5.3-1,7.4-2.7l8.7,8.7c0.2,0.2,0.6,0.2,0.9,0l0.9-0.9C35.6,34.2,35.6,33.9,35.3,33.5z M17.6,26.8c-5.1,0-9.3-4.2-9.3-9.3
			c-0.1-5.1,4.1-9.3,9.3-9.3c5.1,0,9.3,4.2,9.3,9.3S22.7,26.8,17.6,26.8z"/>
	</g>
</g>
</svg>
