<?xml version="1.0" encoding="utf-8"?>
<!-- Generator: Adobe Illustrator 16.0.0, SVG Export Plug-In . SVG Version: 6.00 Build 0)  -->
<!DOCTYPE svg PUBLIC "-//W3C//DTD SVG 1.1//EN" "http://www.w3.org/Graphics/SVG/1.1/DTD/svg11.dtd">
<svg version="1.1" id="Layer_1" xmlns="http://www.w3.org/2000/svg" xmlns:xlink="http://www.w3.org/1999/xlink" x="0px" y="0px"
	 width="40px" height="40px" viewBox="0 0 40 40" enable-background="new 0 0 40 40" xml:space="preserve">
<g>
	<g>
		<path fill="#FFFFFF" d="M34.422,32.725l-8.097-8.098c1.535-1.896,2.46-4.307,2.46-6.931c0-6.083-4.95-11.033-11.034-11.033
			S6.719,11.613,6.719,17.696c0,6.083,4.949,11.032,11.033,11.032c2.624,0,5.034-0.924,6.931-2.459l8.097,8.096
			c0.227,0.227,0.595,0.227,0.821,0l0.821-0.82C34.648,33.318,34.648,32.951,34.422,32.725z M17.752,26.406
			c-4.803,0-8.71-3.906-8.71-8.71c0-4.803,3.907-8.71,8.71-8.71c4.804,0,8.71,3.907,8.71,8.71
			C26.462,22.5,22.556,26.406,17.752,26.406z"/>
	</g>
</g>
</svg>
