<?xml version="1.0" encoding="utf-8"?>
<!-- Generator: Adobe Illustrator 16.0.0, SVG Export Plug-In . SVG Version: 6.00 Build 0)  -->
<!DOCTYPE svg PUBLIC "-//W3C//DTD SVG 1.1//EN" "http://www.w3.org/Graphics/SVG/1.1/DTD/svg11.dtd">
<svg version="1.1" id="Capa_1" xmlns="http://www.w3.org/2000/svg" xmlns:xlink="http://www.w3.org/1999/xlink" x="0px" y="0px"
	 width="40px" height="40px" viewBox="0 0 40 40" enable-background="new 0 0 40 40" xml:space="preserve">
<g>
	<rect x="17.207" y="7.67" fill="none" width="5.586" height="2.123"/>
	<rect x="11.905" y="31.417" fill="none" width="16.187" height="0.913"/>
	<path fill="#6A6B75" d="M25.219,9.792V5.246H14.782v4.547H7.387v2.425h2.094v22.537H30.52V12.218h2.094V9.792H25.219z M17.207,7.67
		h5.586v2.123h-5.586V7.67z M28.094,27.945h-0.002v2.428v1.044v0.913H11.905v-0.913v-1.044v-2.428v-1.74V12.218h16.188
		L28.094,27.945L28.094,27.945z"/>
	<rect x="14.431" y="16.587" fill="#6A6B75" width="2.424" height="10.663"/>
	<rect x="18.788" y="16.587" fill="#6A6B75" width="2.425" height="10.663"/>
	<rect x="23.143" y="16.587" fill="#6A6B75" width="2.426" height="10.663"/>
</g>
</svg>
