<?xml version="1.0" encoding="utf-8"?>
<!-- Generator: Adobe Illustrator 24.0.2, SVG Export Plug-In . SVG Version: 6.00 Build 0)  -->
<svg version="1.1" id="Capa_1" xmlns="http://www.w3.org/2000/svg" xmlns:xlink="http://www.w3.org/1999/xlink" x="0px" y="0px"
	 viewBox="0 0 200 200" style="enable-background:new 0 0 200 200;" xml:space="preserve">
<style type="text/css">
	.st0{fill:#FFFFFF;}
</style>
<path class="st0" d="M142.7,133.6c14.4,14.4,22.4,33.6,22.4,54h-13.7c0-34.5-28.1-62.6-62.6-62.6s-62.6,28.1-62.6,62.6H12.4
	c0-20.4,7.9-39.5,22.4-54c7.9-7.9,17.3-13.9,27.5-17.7c-10.7-8.1-17.7-21-17.7-35.5C44.6,56,64.5,36,89,36c2.4,0,4.8,0.2,7.2,0.6
	v13.9c-2.3-0.5-4.7-0.8-7.1-0.8c-17,0-30.8,13.8-30.8,30.8s13.8,30.8,30.8,30.8c12.4,0,23-7.3,27.9-17.9l10.1,10.1
	c-3,4.9-6.9,9.2-11.5,12.6C125.7,119.9,134.9,125.8,142.7,133.6z M175.3,57.9c-0.6,2.5-1.6,4.9-2.9,7.1l8.7,8.7l-9.7,9.7l-8.7-8.7
	c-2.2,1.3-4.7,2.3-7.3,3v12.1h-13.7V77.5c-2.4-0.6-4.7-1.6-6.8-2.9l-8.7,8.7l-9.7-9.7l8.7-8.7c-1.3-2.2-2.3-4.5-2.9-7.1h-12.4V44.2
	h12.4c0.6-2.5,1.6-4.9,2.9-7.1l-8.7-8.7l9.7-9.7l8.7,8.7c2.1-1.2,4.4-2.2,6.8-2.9V12.4h13.7v12.1c2.6,0.6,5,1.7,7.3,3l8.7-8.7
	l9.7,9.7l-8.7,8.7c1.3,2.2,2.3,4.5,2.9,7.1h12.3V58L175.3,57.9L175.3,57.9z M148.8,64.8c7.5,0,13.7-6.1,13.7-13.7
	s-6.1-13.7-13.7-13.7c-2.9,0-5.7,0.9-7.9,2.5l-3.3,3.3c-1.6,2.2-2.5,5-2.5,7.9C135.1,58.6,141.3,64.8,148.8,64.8z"/>
</svg>
